<svg xmlns="http://www.w3.org/2000/svg" width="600" height="600" viewBox="0 0 600 600">
  <defs>
    <radialGradient id="glow" cx="50%" cy="38%" r="75%">
      <stop offset="0%" stop-color="#1f5be6" stop-opacity="0.16"/>
      <stop offset="100%" stop-color="#1f5be6" stop-opacity="0"/>
    </radialGradient>
  </defs>
  <rect width="600" height="600" fill="#0b0c0f"/>
  <rect width="600" height="600" fill="url(#glow)"/>
  <line x1="206.9" y1="407.5" x2="120.1" y2="348.3" stroke="#1f5be6" stroke-opacity="0.057" stroke-width="1"/><line x1="206.9" y1="407.5" x2="136.5" y2="433.5" stroke="#1f5be6" stroke-opacity="0.127" stroke-width="1"/><line x1="206.9" y1="407.5" x2="283.9" y2="403.2" stroke="#1f5be6" stroke-opacity="0.122" stroke-width="1"/><line x1="206.9" y1="407.5" x2="254.7" y2="412.7" stroke="#1f5be6" stroke-opacity="0.189" stroke-width="1"/><line x1="206.9" y1="407.5" x2="202.3" y2="334.8" stroke="#1f5be6" stroke-opacity="0.132" stroke-width="1"/><line x1="54.9" y1="279.1" x2="120.1" y2="348.3" stroke="#1f5be6" stroke-opacity="0.081" stroke-width="1"/><line x1="394.9" y1="320.8" x2="522.3" y2="324.8" stroke="#1f5be6" stroke-opacity="0.006" stroke-width="1"/><line x1="394.9" y1="320.8" x2="337.0" y2="292.1" stroke="#1f5be6" stroke-opacity="0.151" stroke-width="1"/><line x1="230.6" y1="72.2" x2="274.9" y2="65.2" stroke="#1f5be6" stroke-opacity="0.197" stroke-width="1"/><line x1="230.6" y1="72.2" x2="201.5" y2="111.4" stroke="#1f5be6" stroke-opacity="0.187" stroke-width="1"/><line x1="530.7" y1="442.4" x2="522.3" y2="324.8" stroke="#1f5be6" stroke-opacity="0.028" stroke-width="1"/><line x1="530.7" y1="442.4" x2="513.4" y2="420.3" stroke="#1f5be6" stroke-opacity="0.235" stroke-width="1"/><line x1="522.3" y1="324.8" x2="513.4" y2="420.3" stroke="#1f5be6" stroke-opacity="0.079" stroke-width="1"/><line x1="120.1" y1="348.3" x2="136.5" y2="433.5" stroke="#1f5be6" stroke-opacity="0.100" stroke-width="1"/><line x1="120.1" y1="348.3" x2="202.3" y2="334.8" stroke="#1f5be6" stroke-opacity="0.108" stroke-width="1"/><line x1="337.0" y1="292.1" x2="283.9" y2="403.2" stroke="#1f5be6" stroke-opacity="0.016" stroke-width="1"/><line x1="136.5" y1="433.5" x2="254.7" y2="412.7" stroke="#1f5be6" stroke-opacity="0.023" stroke-width="1"/><line x1="136.5" y1="433.5" x2="202.3" y2="334.8" stroke="#1f5be6" stroke-opacity="0.026" stroke-width="1"/><line x1="283.9" y1="403.2" x2="254.7" y2="412.7" stroke="#1f5be6" stroke-opacity="0.229" stroke-width="1"/><line x1="283.9" y1="403.2" x2="202.3" y2="334.8" stroke="#1f5be6" stroke-opacity="0.054" stroke-width="1"/><line x1="254.7" y1="412.7" x2="202.3" y2="334.8" stroke="#1f5be6" stroke-opacity="0.083" stroke-width="1"/><line x1="274.9" y1="65.2" x2="201.5" y2="111.4" stroke="#1f5be6" stroke-opacity="0.100" stroke-width="1"/><circle cx="206.9" cy="407.5" r="2.9" fill="#1f5be6" fill-opacity="0.7"/><circle cx="54.9" cy="279.1" r="2.6" fill="#1f5be6" fill-opacity="0.7"/><circle cx="394.9" cy="320.8" r="2.5" fill="#1f5be6" fill-opacity="0.7"/><circle cx="230.6" cy="72.2" r="1.4" fill="#1f5be6" fill-opacity="0.7"/><circle cx="530.7" cy="442.4" r="2.1" fill="#1f5be6" fill-opacity="0.7"/><circle cx="522.3" cy="324.8" r="2.9" fill="#1f5be6" fill-opacity="0.7"/><circle cx="120.1" cy="348.3" r="2.4" fill="#1f5be6" fill-opacity="0.7"/><circle cx="412.1" cy="105.0" r="2.8" fill="#1f5be6" fill-opacity="0.7"/><circle cx="337.0" cy="292.1" r="2.7" fill="#1f5be6" fill-opacity="0.7"/><circle cx="136.5" cy="433.5" r="3.0" fill="#1f5be6" fill-opacity="0.7"/><circle cx="283.9" cy="403.2" r="1.6" fill="#1f5be6" fill-opacity="0.7"/><circle cx="254.7" cy="412.7" r="2.8" fill="#1f5be6" fill-opacity="0.7"/><circle cx="274.9" cy="65.2" r="2.9" fill="#1f5be6" fill-opacity="0.7"/><circle cx="513.4" cy="420.3" r="3.6" fill="#1f5be6" fill-opacity="0.7"/><circle cx="202.3" cy="334.8" r="3.4" fill="#1f5be6" fill-opacity="0.7"/><circle cx="201.5" cy="111.4" r="3.3" fill="#1f5be6" fill-opacity="0.7"/>
  <rect x="216" y="110" width="56" height="56" rx="6" fill="#1f5be6" fill-opacity="0.93"/><rect x="328" y="110" width="56" height="56" rx="6" fill="#1f5be6" fill-opacity="0.93"/><rect x="160" y="166" width="56" height="56" rx="6" fill="#1f5be6" fill-opacity="0.69"/><rect x="384" y="166" width="56" height="56" rx="6" fill="#1f5be6" fill-opacity="0.69"/><rect x="216" y="166" width="56" height="56" rx="6" fill="#1f5be6" fill-opacity="0.72"/><rect x="328" y="166" width="56" height="56" rx="6" fill="#1f5be6" fill-opacity="0.72"/><rect x="160" y="222" width="56" height="56" rx="6" fill="#1f5be6" fill-opacity="0.65"/><rect x="384" y="222" width="56" height="56" rx="6" fill="#1f5be6" fill-opacity="0.65"/><rect x="216" y="334" width="56" height="56" rx="6" fill="#1f5be6" fill-opacity="0.84"/><rect x="328" y="334" width="56" height="56" rx="6" fill="#1f5be6" fill-opacity="0.84"/><rect x="272" y="334" width="56" height="56" rx="6" fill="#1f5be6" fill-opacity="0.64"/>
  <text x="300" y="468" font-size="28" text-anchor="middle" fill="#f3f4f6" font-family="ui-monospace,Menlo,Consolas,monospace" font-weight="700" letter-spacing="0.5">executor.defi.agent</text>
  <g transform="translate(300,468)"><circle r="11" cy="-10" cx="189" fill="#2fa855"/><text x="189" y="-5" font-size="14" text-anchor="middle" fill="#0b0c0f" font-family="ui-monospace,Menlo,monospace" font-weight="700">✓</text></g>
  <text x="300" y="502" font-size="15" text-anchor="middle" fill="#8a909a" font-family="ui-monospace,Menlo,Consolas,monospace" letter-spacing="3">NEURONS · DEFI · STANDARD</text>
  <rect x="14" y="14" width="572" height="572" rx="18" fill="none" stroke="#c2c6cd" stroke-width="2.5" stroke-opacity="0.95"/>
  <rect x="26" y="26" width="548" height="548" rx="12" fill="none" stroke="#c2c6cd" stroke-width="1" stroke-opacity="0.25"/>
  <text x="300" y="563" font-size="12" text-anchor="middle" fill="#565c66" font-family="ui-monospace,Menlo,Consolas,monospace" letter-spacing="4">.AGENT NAMESPACE · SOLANA</text>
</svg>