<svg xmlns="http://www.w3.org/2000/svg" width="600" height="600" viewBox="0 0 600 600">
  <defs>
    <radialGradient id="glow" cx="50%" cy="38%" r="75%">
      <stop offset="0%" stop-color="#8a909a" stop-opacity="0.16"/>
      <stop offset="100%" stop-color="#8a909a" stop-opacity="0"/>
    </radialGradient>
  </defs>
  <rect width="600" height="600" fill="#0b0c0f"/>
  <rect width="600" height="600" fill="url(#glow)"/>
  <line x1="499.5" y1="386.3" x2="511.4" y2="261.8" stroke="#8a909a" stroke-opacity="0.012" stroke-width="1"/><line x1="302.0" y1="268.5" x2="332.1" y2="318.6" stroke="#8a909a" stroke-opacity="0.165" stroke-width="1"/><line x1="302.0" y1="268.5" x2="215.4" y2="204.6" stroke="#8a909a" stroke-opacity="0.051" stroke-width="1"/><line x1="302.0" y1="268.5" x2="201.4" y2="308.6" stroke="#8a909a" stroke-opacity="0.050" stroke-width="1"/><line x1="302.0" y1="268.5" x2="297.6" y2="230.0" stroke="#8a909a" stroke-opacity="0.210" stroke-width="1"/><line x1="90.3" y1="431.2" x2="105.1" y2="454.4" stroke="#8a909a" stroke-opacity="0.236" stroke-width="1"/><line x1="511.4" y1="261.8" x2="516.9" y2="214.8" stroke="#8a909a" stroke-opacity="0.191" stroke-width="1"/><line x1="358.2" y1="92.0" x2="234.2" y2="94.2" stroke="#8a909a" stroke-opacity="0.014" stroke-width="1"/><line x1="358.2" y1="92.0" x2="306.3" y2="91.0" stroke="#8a909a" stroke-opacity="0.180" stroke-width="1"/><line x1="234.2" y1="94.2" x2="215.4" y2="204.6" stroke="#8a909a" stroke-opacity="0.041" stroke-width="1"/><line x1="234.2" y1="94.2" x2="118.9" y2="70.1" stroke="#8a909a" stroke-opacity="0.028" stroke-width="1"/><line x1="234.2" y1="94.2" x2="306.3" y2="91.0" stroke="#8a909a" stroke-opacity="0.134" stroke-width="1"/><line x1="332.1" y1="318.6" x2="297.6" y2="230.0" stroke="#8a909a" stroke-opacity="0.080" stroke-width="1"/><line x1="215.4" y1="204.6" x2="201.4" y2="308.6" stroke="#8a909a" stroke-opacity="0.058" stroke-width="1"/><line x1="215.4" y1="204.6" x2="297.6" y2="230.0" stroke="#8a909a" stroke-opacity="0.101" stroke-width="1"/><line x1="215.4" y1="204.6" x2="168.3" y2="226.2" stroke="#8a909a" stroke-opacity="0.181" stroke-width="1"/><line x1="201.4" y1="308.6" x2="297.6" y2="230.0" stroke="#8a909a" stroke-opacity="0.013" stroke-width="1"/><line x1="201.4" y1="308.6" x2="168.3" y2="226.2" stroke="#8a909a" stroke-opacity="0.095" stroke-width="1"/><line x1="366.3" y1="458.6" x2="382.6" y2="452.3" stroke="#8a909a" stroke-opacity="0.260" stroke-width="1"/><line x1="297.6" y1="230.0" x2="168.3" y2="226.2" stroke="#8a909a" stroke-opacity="0.001" stroke-width="1"/><circle cx="499.5" cy="386.3" r="3.4" fill="#8a909a" fill-opacity="0.7"/><circle cx="302.0" cy="268.5" r="2.4" fill="#8a909a" fill-opacity="0.7"/><circle cx="90.3" cy="431.2" r="1.9" fill="#8a909a" fill-opacity="0.7"/><circle cx="511.4" cy="261.8" r="2.2" fill="#8a909a" fill-opacity="0.7"/><circle cx="358.2" cy="92.0" r="2.2" fill="#8a909a" fill-opacity="0.7"/><circle cx="503.0" cy="50.1" r="1.4" fill="#8a909a" fill-opacity="0.7"/><circle cx="234.2" cy="94.2" r="2.7" fill="#8a909a" fill-opacity="0.7"/><circle cx="105.1" cy="454.4" r="3.6" fill="#8a909a" fill-opacity="0.7"/><circle cx="332.1" cy="318.6" r="2.0" fill="#8a909a" fill-opacity="0.7"/><circle cx="215.4" cy="204.6" r="2.7" fill="#8a909a" fill-opacity="0.7"/><circle cx="118.9" cy="70.1" r="2.3" fill="#8a909a" fill-opacity="0.7"/><circle cx="201.4" cy="308.6" r="2.0" fill="#8a909a" fill-opacity="0.7"/><circle cx="366.3" cy="458.6" r="2.2" fill="#8a909a" fill-opacity="0.7"/><circle cx="306.3" cy="91.0" r="1.8" fill="#8a909a" fill-opacity="0.7"/><circle cx="382.6" cy="452.3" r="1.3" fill="#8a909a" fill-opacity="0.7"/><circle cx="297.6" cy="230.0" r="2.9" fill="#8a909a" fill-opacity="0.7"/><circle cx="168.3" cy="226.2" r="1.3" fill="#8a909a" fill-opacity="0.7"/><circle cx="516.9" cy="214.8" r="2.6" fill="#8a909a" fill-opacity="0.7"/>
  <rect x="272" y="110" width="56" height="56" rx="6" fill="#8a909a" fill-opacity="0.80"/><rect x="160" y="166" width="56" height="56" rx="6" fill="#8a909a" fill-opacity="0.82"/><rect x="384" y="166" width="56" height="56" rx="6" fill="#8a909a" fill-opacity="0.82"/><rect x="272" y="166" width="56" height="56" rx="6" fill="#8a909a" fill-opacity="0.60"/><rect x="160" y="222" width="56" height="56" rx="6" fill="#8a909a" fill-opacity="0.78"/><rect x="384" y="222" width="56" height="56" rx="6" fill="#8a909a" fill-opacity="0.78"/><rect x="216" y="222" width="56" height="56" rx="6" fill="#8a909a" fill-opacity="0.76"/><rect x="328" y="222" width="56" height="56" rx="6" fill="#8a909a" fill-opacity="0.76"/><rect x="272" y="222" width="56" height="56" rx="6" fill="#8a909a" fill-opacity="0.61"/><rect x="272" y="278" width="56" height="56" rx="6" fill="#8a909a" fill-opacity="0.84"/><rect x="160" y="334" width="56" height="56" rx="6" fill="#8a909a" fill-opacity="0.74"/><rect x="384" y="334" width="56" height="56" rx="6" fill="#8a909a" fill-opacity="0.74"/><rect x="216" y="334" width="56" height="56" rx="6" fill="#8a909a" fill-opacity="0.90"/><rect x="328" y="334" width="56" height="56" rx="6" fill="#8a909a" fill-opacity="0.90"/><rect x="272" y="334" width="56" height="56" rx="6" fill="#8a909a" fill-opacity="0.58"/>
  <text x="300" y="468" font-size="34" text-anchor="middle" fill="#f3f4f6" font-family="ui-monospace,Menlo,Consolas,monospace" font-weight="700" letter-spacing="0.5">meowagent.agent</text>
  
  <text x="300" y="502" font-size="15" text-anchor="middle" fill="#8a909a" font-family="ui-monospace,Menlo,Consolas,monospace" letter-spacing="3">NEURONS · BASE · STANDARD</text>
  <rect x="14" y="14" width="572" height="572" rx="18" fill="none" stroke="#c2c6cd" stroke-width="2.5" stroke-opacity="0.95"/>
  <rect x="26" y="26" width="548" height="548" rx="12" fill="none" stroke="#c2c6cd" stroke-width="1" stroke-opacity="0.25"/>
  <text x="300" y="563" font-size="12" text-anchor="middle" fill="#565c66" font-family="ui-monospace,Menlo,Consolas,monospace" letter-spacing="4">.AGENT NAMESPACE · SOLANA</text>
</svg>