<svg xmlns="http://www.w3.org/2000/svg" width="600" height="600" viewBox="0 0 600 600">
  <defs>
    <radialGradient id="glow" cx="50%" cy="38%" r="75%">
      <stop offset="0%" stop-color="#8a909a" stop-opacity="0.16"/>
      <stop offset="100%" stop-color="#8a909a" stop-opacity="0"/>
    </radialGradient>
  </defs>
  <rect width="600" height="600" fill="#0b0c0f"/>
  <rect width="600" height="600" fill="url(#glow)"/>
  <line x1="500.4" y1="129.3" x2="504.8" y2="91.7" stroke="#8a909a" stroke-opacity="0.213" stroke-width="1"/><line x1="500.4" y1="129.3" x2="511.9" y2="170.7" stroke="#8a909a" stroke-opacity="0.201" stroke-width="1"/><line x1="100.2" y1="219.5" x2="63.4" y2="260.1" stroke="#8a909a" stroke-opacity="0.174" stroke-width="1"/><line x1="100.2" y1="219.5" x2="67.5" y2="163.4" stroke="#8a909a" stroke-opacity="0.150" stroke-width="1"/><line x1="100.2" y1="219.5" x2="172.8" y2="125.0" stroke="#8a909a" stroke-opacity="0.025" stroke-width="1"/><line x1="310.6" y1="232.9" x2="330.3" y2="307.1" stroke="#8a909a" stroke-opacity="0.123" stroke-width="1"/><line x1="310.6" y1="232.9" x2="372.2" y2="254.9" stroke="#8a909a" stroke-opacity="0.149" stroke-width="1"/><line x1="310.6" y1="232.9" x2="284.6" y2="298.3" stroke="#8a909a" stroke-opacity="0.138" stroke-width="1"/><line x1="504.8" y1="91.7" x2="511.9" y2="170.7" stroke="#8a909a" stroke-opacity="0.117" stroke-width="1"/><line x1="442.3" y1="458.1" x2="453.5" y2="453.3" stroke="#8a909a" stroke-opacity="0.272" stroke-width="1"/><line x1="442.3" y1="458.1" x2="323.7" y2="465.4" stroke="#8a909a" stroke-opacity="0.026" stroke-width="1"/><line x1="442.3" y1="458.1" x2="422.9" y2="376.1" stroke="#8a909a" stroke-opacity="0.106" stroke-width="1"/><line x1="442.3" y1="458.1" x2="417.2" y2="365.4" stroke="#8a909a" stroke-opacity="0.079" stroke-width="1"/><line x1="442.3" y1="458.1" x2="455.8" y2="445.7" stroke="#8a909a" stroke-opacity="0.258" stroke-width="1"/><line x1="453.5" y1="453.3" x2="422.9" y2="376.1" stroke="#8a909a" stroke-opacity="0.108" stroke-width="1"/><line x1="453.5" y1="453.3" x2="417.2" y2="365.4" stroke="#8a909a" stroke-opacity="0.081" stroke-width="1"/><line x1="453.5" y1="453.3" x2="455.8" y2="445.7" stroke="#8a909a" stroke-opacity="0.282" stroke-width="1"/><line x1="323.7" y1="465.4" x2="270.4" y2="365.4" stroke="#8a909a" stroke-opacity="0.038" stroke-width="1"/><line x1="63.4" y1="260.1" x2="67.5" y2="163.4" stroke="#8a909a" stroke-opacity="0.077" stroke-width="1"/><line x1="422.9" y1="376.1" x2="330.3" y2="307.1" stroke="#8a909a" stroke-opacity="0.034" stroke-width="1"/><line x1="422.9" y1="376.1" x2="417.2" y2="365.4" stroke="#8a909a" stroke-opacity="0.272" stroke-width="1"/><line x1="422.9" y1="376.1" x2="455.8" y2="445.7" stroke="#8a909a" stroke-opacity="0.122" stroke-width="1"/><line x1="422.9" y1="376.1" x2="417.0" y2="319.6" stroke="#8a909a" stroke-opacity="0.169" stroke-width="1"/><line x1="330.3" y1="307.1" x2="372.2" y2="254.9" stroke="#8a909a" stroke-opacity="0.145" stroke-width="1"/><line x1="330.3" y1="307.1" x2="417.2" y2="365.4" stroke="#8a909a" stroke-opacity="0.059" stroke-width="1"/><line x1="330.3" y1="307.1" x2="270.4" y2="365.4" stroke="#8a909a" stroke-opacity="0.107" stroke-width="1"/><line x1="330.3" y1="307.1" x2="417.0" y2="319.6" stroke="#8a909a" stroke-opacity="0.098" stroke-width="1"/><line x1="330.3" y1="307.1" x2="284.6" y2="298.3" stroke="#8a909a" stroke-opacity="0.193" stroke-width="1"/><line x1="372.2" y1="254.9" x2="417.2" y2="365.4" stroke="#8a909a" stroke-opacity="0.025" stroke-width="1"/><line x1="372.2" y1="254.9" x2="417.0" y2="319.6" stroke="#8a909a" stroke-opacity="0.118" stroke-width="1"/><line x1="372.2" y1="254.9" x2="284.6" y2="298.3" stroke="#8a909a" stroke-opacity="0.074" stroke-width="1"/><line x1="67.5" y1="163.4" x2="172.8" y2="125.0" stroke="#8a909a" stroke-opacity="0.041" stroke-width="1"/><line x1="417.2" y1="365.4" x2="455.8" y2="445.7" stroke="#8a909a" stroke-opacity="0.095" stroke-width="1"/><line x1="417.2" y1="365.4" x2="417.0" y2="319.6" stroke="#8a909a" stroke-opacity="0.194" stroke-width="1"/><line x1="270.4" y1="365.4" x2="179.9" y2="393.2" stroke="#8a909a" stroke-opacity="0.081" stroke-width="1"/><line x1="270.4" y1="365.4" x2="284.6" y2="298.3" stroke="#8a909a" stroke-opacity="0.142" stroke-width="1"/><circle cx="500.4" cy="129.3" r="3.1" fill="#8a909a" fill-opacity="0.7"/><circle cx="100.2" cy="219.5" r="2.4" fill="#8a909a" fill-opacity="0.7"/><circle cx="310.6" cy="232.9" r="2.7" fill="#8a909a" fill-opacity="0.7"/><circle cx="504.8" cy="91.7" r="2.4" fill="#8a909a" fill-opacity="0.7"/><circle cx="442.3" cy="458.1" r="3.1" fill="#8a909a" fill-opacity="0.7"/><circle cx="453.5" cy="453.3" r="1.7" fill="#8a909a" fill-opacity="0.7"/><circle cx="323.7" cy="465.4" r="1.4" fill="#8a909a" fill-opacity="0.7"/><circle cx="63.4" cy="260.1" r="3.3" fill="#8a909a" fill-opacity="0.7"/><circle cx="422.9" cy="376.1" r="2.7" fill="#8a909a" fill-opacity="0.7"/><circle cx="330.3" cy="307.1" r="2.8" fill="#8a909a" fill-opacity="0.7"/><circle cx="372.2" cy="254.9" r="1.4" fill="#8a909a" fill-opacity="0.7"/><circle cx="67.5" cy="163.4" r="2.5" fill="#8a909a" fill-opacity="0.7"/><circle cx="417.2" cy="365.4" r="2.8" fill="#8a909a" fill-opacity="0.7"/><circle cx="511.9" cy="170.7" r="2.8" fill="#8a909a" fill-opacity="0.7"/><circle cx="455.8" cy="445.7" r="2.3" fill="#8a909a" fill-opacity="0.7"/><circle cx="270.4" cy="365.4" r="3.0" fill="#8a909a" fill-opacity="0.7"/><circle cx="179.9" cy="393.2" r="3.0" fill="#8a909a" fill-opacity="0.7"/><circle cx="417.0" cy="319.6" r="1.3" fill="#8a909a" fill-opacity="0.7"/><circle cx="284.6" cy="298.3" r="1.6" fill="#8a909a" fill-opacity="0.7"/><circle cx="172.8" cy="125.0" r="1.2" fill="#8a909a" fill-opacity="0.7"/>
  <rect x="160" y="110" width="56" height="56" rx="6" fill="#8a909a" fill-opacity="0.60"/><rect x="384" y="110" width="56" height="56" rx="6" fill="#8a909a" fill-opacity="0.60"/><rect x="216" y="110" width="56" height="56" rx="6" fill="#8a909a" fill-opacity="0.91"/><rect x="328" y="110" width="56" height="56" rx="6" fill="#8a909a" fill-opacity="0.91"/><rect x="160" y="166" width="56" height="56" rx="6" fill="#8a909a" fill-opacity="0.64"/><rect x="384" y="166" width="56" height="56" rx="6" fill="#8a909a" fill-opacity="0.64"/><rect x="216" y="166" width="56" height="56" rx="6" fill="#8a909a" fill-opacity="0.66"/><rect x="328" y="166" width="56" height="56" rx="6" fill="#8a909a" fill-opacity="0.66"/><rect x="160" y="222" width="56" height="56" rx="6" fill="#8a909a" fill-opacity="0.69"/><rect x="384" y="222" width="56" height="56" rx="6" fill="#8a909a" fill-opacity="0.69"/><rect x="216" y="222" width="56" height="56" rx="6" fill="#8a909a" fill-opacity="0.56"/><rect x="328" y="222" width="56" height="56" rx="6" fill="#8a909a" fill-opacity="0.56"/><rect x="272" y="222" width="56" height="56" rx="6" fill="#8a909a" fill-opacity="0.66"/><rect x="216" y="278" width="56" height="56" rx="6" fill="#8a909a" fill-opacity="0.62"/><rect x="328" y="278" width="56" height="56" rx="6" fill="#8a909a" fill-opacity="0.62"/><rect x="272" y="334" width="56" height="56" rx="6" fill="#8a909a" fill-opacity="0.63"/>
  <text x="300" y="468" font-size="34" text-anchor="middle" fill="#f3f4f6" font-family="ui-monospace,Menlo,Consolas,monospace" font-weight="700" letter-spacing="0.5">meow.agent</text>
  
  <text x="300" y="502" font-size="15" text-anchor="middle" fill="#8a909a" font-family="ui-monospace,Menlo,Consolas,monospace" letter-spacing="3">NEURONS · BASE · PREMIUM</text>
  <rect x="14" y="14" width="572" height="572" rx="18" fill="none" stroke="#f0a017" stroke-width="4" stroke-opacity="0.95"/>
  <rect x="26" y="26" width="548" height="548" rx="12" fill="none" stroke="#f0a017" stroke-width="1" stroke-opacity="0.25"/>
  <text x="300" y="563" font-size="12" text-anchor="middle" fill="#565c66" font-family="ui-monospace,Menlo,Consolas,monospace" letter-spacing="4">.AGENT NAMESPACE · SOLANA</text>
</svg>