<svg xmlns="http://www.w3.org/2000/svg" width="600" height="600" viewBox="0 0 600 600">
  <defs>
    <radialGradient id="glow" cx="50%" cy="38%" r="75%">
      <stop offset="0%" stop-color="#e5352b" stop-opacity="0.16"/>
      <stop offset="100%" stop-color="#e5352b" stop-opacity="0"/>
    </radialGradient>
  </defs>
  <rect width="600" height="600" fill="#0b0c0f"/>
  <rect width="600" height="600" fill="url(#glow)"/>
  <line x1="280.1" y1="135.4" x2="276.4" y2="176.4" stroke="#e5352b" stroke-opacity="0.205" stroke-width="1"/><line x1="280.1" y1="135.4" x2="401.0" y2="166.6" stroke="#e5352b" stroke-opacity="0.012" stroke-width="1"/><line x1="280.1" y1="135.4" x2="303.1" y2="101.7" stroke="#e5352b" stroke-opacity="0.206" stroke-width="1"/><line x1="280.1" y1="135.4" x2="224.7" y2="151.4" stroke="#e5352b" stroke-opacity="0.167" stroke-width="1"/><line x1="280.1" y1="135.4" x2="352.9" y2="99.4" stroke="#e5352b" stroke-opacity="0.113" stroke-width="1"/><line x1="113.7" y1="105.3" x2="112.5" y2="54.3" stroke="#e5352b" stroke-opacity="0.182" stroke-width="1"/><line x1="113.7" y1="105.3" x2="224.7" y2="151.4" stroke="#e5352b" stroke-opacity="0.023" stroke-width="1"/><line x1="541.5" y1="284.2" x2="495.6" y2="261.8" stroke="#e5352b" stroke-opacity="0.182" stroke-width="1"/><line x1="541.5" y1="284.2" x2="470.7" y2="244.1" stroke="#e5352b" stroke-opacity="0.112" stroke-width="1"/><line x1="541.5" y1="284.2" x2="492.1" y2="181.7" stroke="#e5352b" stroke-opacity="0.037" stroke-width="1"/><line x1="376.1" y1="258.3" x2="495.6" y2="261.8" stroke="#e5352b" stroke-opacity="0.024" stroke-width="1"/><line x1="376.1" y1="258.3" x2="276.4" y2="176.4" stroke="#e5352b" stroke-opacity="0.002" stroke-width="1"/><line x1="376.1" y1="258.3" x2="401.0" y2="166.6" stroke="#e5352b" stroke-opacity="0.081" stroke-width="1"/><line x1="376.1" y1="258.3" x2="303.7" y2="273.1" stroke="#e5352b" stroke-opacity="0.129" stroke-width="1"/><line x1="376.1" y1="258.3" x2="470.7" y2="244.1" stroke="#e5352b" stroke-opacity="0.079" stroke-width="1"/><line x1="495.6" y1="261.8" x2="470.7" y2="244.1" stroke="#e5352b" stroke-opacity="0.230" stroke-width="1"/><line x1="495.6" y1="261.8" x2="492.1" y2="181.7" stroke="#e5352b" stroke-opacity="0.115" stroke-width="1"/><line x1="276.4" y1="176.4" x2="401.0" y2="166.6" stroke="#e5352b" stroke-opacity="0.012" stroke-width="1"/><line x1="276.4" y1="176.4" x2="303.7" y2="273.1" stroke="#e5352b" stroke-opacity="0.068" stroke-width="1"/><line x1="276.4" y1="176.4" x2="303.1" y2="101.7" stroke="#e5352b" stroke-opacity="0.117" stroke-width="1"/><line x1="276.4" y1="176.4" x2="224.7" y2="151.4" stroke="#e5352b" stroke-opacity="0.167" stroke-width="1"/><line x1="276.4" y1="176.4" x2="352.9" y2="99.4" stroke="#e5352b" stroke-opacity="0.049" stroke-width="1"/><line x1="102.1" y1="353.2" x2="193.0" y2="412.4" stroke="#e5352b" stroke-opacity="0.050" stroke-width="1"/><line x1="102.1" y1="353.2" x2="83.1" y2="355.2" stroke="#e5352b" stroke-opacity="0.256" stroke-width="1"/><line x1="102.1" y1="353.2" x2="141.9" y2="278.3" stroke="#e5352b" stroke-opacity="0.104" stroke-width="1"/><line x1="401.0" y1="166.6" x2="470.7" y2="244.1" stroke="#e5352b" stroke-opacity="0.059" stroke-width="1"/><line x1="401.0" y1="166.6" x2="474.7" y2="120.5" stroke="#e5352b" stroke-opacity="0.099" stroke-width="1"/><line x1="401.0" y1="166.6" x2="303.1" y2="101.7" stroke="#e5352b" stroke-opacity="0.029" stroke-width="1"/><line x1="401.0" y1="166.6" x2="352.9" y2="99.4" stroke="#e5352b" stroke-opacity="0.109" stroke-width="1"/><line x1="401.0" y1="166.6" x2="492.1" y2="181.7" stroke="#e5352b" stroke-opacity="0.087" stroke-width="1"/><line x1="193.0" y1="412.4" x2="83.1" y2="355.2" stroke="#e5352b" stroke-opacity="0.014" stroke-width="1"/><line x1="470.7" y1="244.1" x2="474.7" y2="120.5" stroke="#e5352b" stroke-opacity="0.015" stroke-width="1"/><line x1="470.7" y1="244.1" x2="492.1" y2="181.7" stroke="#e5352b" stroke-opacity="0.148" stroke-width="1"/><line x1="474.7" y1="120.5" x2="352.9" y2="99.4" stroke="#e5352b" stroke-opacity="0.015" stroke-width="1"/><line x1="474.7" y1="120.5" x2="492.1" y2="181.7" stroke="#e5352b" stroke-opacity="0.153" stroke-width="1"/><line x1="303.1" y1="101.7" x2="224.7" y2="151.4" stroke="#e5352b" stroke-opacity="0.086" stroke-width="1"/><line x1="303.1" y1="101.7" x2="352.9" y2="99.4" stroke="#e5352b" stroke-opacity="0.185" stroke-width="1"/><line x1="83.1" y1="355.2" x2="141.9" y2="278.3" stroke="#e5352b" stroke-opacity="0.077" stroke-width="1"/><circle cx="280.1" cy="135.4" r="3.2" fill="#e5352b" fill-opacity="0.7"/><circle cx="113.7" cy="105.3" r="2.9" fill="#e5352b" fill-opacity="0.7"/><circle cx="541.5" cy="284.2" r="1.3" fill="#e5352b" fill-opacity="0.7"/><circle cx="376.1" cy="258.3" r="1.6" fill="#e5352b" fill-opacity="0.7"/><circle cx="495.6" cy="261.8" r="3.0" fill="#e5352b" fill-opacity="0.7"/><circle cx="112.5" cy="54.3" r="3.2" fill="#e5352b" fill-opacity="0.7"/><circle cx="276.4" cy="176.4" r="3.3" fill="#e5352b" fill-opacity="0.7"/><circle cx="102.1" cy="353.2" r="3.6" fill="#e5352b" fill-opacity="0.7"/><circle cx="401.0" cy="166.6" r="3.4" fill="#e5352b" fill-opacity="0.7"/><circle cx="193.0" cy="412.4" r="2.9" fill="#e5352b" fill-opacity="0.7"/><circle cx="303.7" cy="273.1" r="1.5" fill="#e5352b" fill-opacity="0.7"/><circle cx="470.7" cy="244.1" r="3.0" fill="#e5352b" fill-opacity="0.7"/><circle cx="474.7" cy="120.5" r="2.8" fill="#e5352b" fill-opacity="0.7"/><circle cx="303.1" cy="101.7" r="3.0" fill="#e5352b" fill-opacity="0.7"/><circle cx="83.1" cy="355.2" r="3.0" fill="#e5352b" fill-opacity="0.7"/><circle cx="141.9" cy="278.3" r="2.3" fill="#e5352b" fill-opacity="0.7"/><circle cx="224.7" cy="151.4" r="1.4" fill="#e5352b" fill-opacity="0.7"/><circle cx="352.9" cy="99.4" r="3.0" fill="#e5352b" fill-opacity="0.7"/><circle cx="492.1" cy="181.7" r="3.3" fill="#e5352b" fill-opacity="0.7"/>
  <rect x="160" y="110" width="56" height="56" rx="6" fill="#e5352b" fill-opacity="0.91"/><rect x="384" y="110" width="56" height="56" rx="6" fill="#e5352b" fill-opacity="0.91"/><rect x="216" y="110" width="56" height="56" rx="6" fill="#e5352b" fill-opacity="0.88"/><rect x="328" y="110" width="56" height="56" rx="6" fill="#e5352b" fill-opacity="0.88"/><rect x="272" y="166" width="56" height="56" rx="6" fill="#e5352b" fill-opacity="0.72"/><rect x="216" y="334" width="56" height="56" rx="6" fill="#e5352b" fill-opacity="0.65"/><rect x="328" y="334" width="56" height="56" rx="6" fill="#e5352b" fill-opacity="0.65"/><rect x="272" y="334" width="56" height="56" rx="6" fill="#e5352b" fill-opacity="0.97"/>
  <text x="300" y="468" font-size="28" text-anchor="middle" fill="#f3f4f6" font-family="ui-monospace,Menlo,Consolas,monospace" font-weight="700" letter-spacing="0.5">sentinel.security.agent</text>
  <g transform="translate(300,468)"><circle r="11" cy="-10" cx="224" fill="#2fa855"/><text x="224" y="-5" font-size="14" text-anchor="middle" fill="#0b0c0f" font-family="ui-monospace,Menlo,monospace" font-weight="700">✓</text></g>
  <text x="300" y="502" font-size="15" text-anchor="middle" fill="#8a909a" font-family="ui-monospace,Menlo,Consolas,monospace" letter-spacing="3">NEURONS · SECURITY · STANDARD</text>
  <rect x="14" y="14" width="572" height="572" rx="18" fill="none" stroke="#c2c6cd" stroke-width="2.5" stroke-opacity="0.95"/>
  <rect x="26" y="26" width="548" height="548" rx="12" fill="none" stroke="#c2c6cd" stroke-width="1" stroke-opacity="0.25"/>
  <text x="300" y="563" font-size="12" text-anchor="middle" fill="#565c66" font-family="ui-monospace,Menlo,Consolas,monospace" letter-spacing="4">.AGENT NAMESPACE · SOLANA</text>
</svg>